HIERARCHY
ROOT Hips
{
	OFFSET 0.000000 0.000000 0.000000
	CHANNELS 6 Xposition Yposition Zposition Zrotation Yrotation Xrotation 
	JOINT LeftUpLeg_virtual
	{
		OFFSET 0.000000 0.000000 0.000000
		CHANNELS 3 Zrotation Yrotation Xrotation
		JOINT LeftUpLeg
		{
			OFFSET 8.479694 -4.795517 -0.379053
			CHANNELS 3 Zrotation Yrotation Xrotation
			JOINT LeftLeg
			{
				OFFSET 0.485052 -32.551468 0.112863
				CHANNELS 3 Zrotation Yrotation Xrotation
				JOINT LeftFoot
				{
					OFFSET 0.438033 -32.635670 -3.012641
					CHANNELS 3 Zrotation Yrotation Xrotation
					JOINT LeftToeBase
					{
						OFFSET 0.970169 -13.225353 11.864223
						CHANNELS 3 Zrotation Yrotation Xrotation
						End Site
						{
							OFFSET 0.000000 0.000000 0.000000
						}
					}
				}
			}
		}
	}
	JOINT RightUpLeg_virtual
	{
		OFFSET 0.000000 0.000000 0.000000
		CHANNELS 3 Zrotation Yrotation Xrotation
		JOINT RightUpLeg
		{
			OFFSET -8.479694 -4.795517 -0.379053
			CHANNELS 3 Zrotation Yrotation Xrotation
			JOINT RightLeg
			{
				OFFSET -0.484100 -32.551483 0.112903
				CHANNELS 3 Zrotation Yrotation Xrotation
				JOINT RightFoot
				{
					OFFSET -0.438985 -32.635651 -3.012681
					CHANNELS 3 Zrotation Yrotation Xrotation
					JOINT RightToeBase
					{
						OFFSET -0.970169 -13.225354 11.864223
						CHANNELS 3 Zrotation Yrotation Xrotation
						End Site
						{
							OFFSET 0.000000 0.000000 0.000000
						}
					}
				}
			}
		}
	}
	JOINT Spine_virtual
	{
		OFFSET 0.000000 0.000000 0.000000
		CHANNELS 3 Zrotation Yrotation Xrotation
		JOINT Spine
		{
			OFFSET 0.000000 7.722015 1.166203
			CHANNELS 3 Zrotation Yrotation Xrotation
			JOINT Spine1
			{
				OFFSET 0.000000 12.024086 0.248766
				CHANNELS 3 Zrotation Yrotation Xrotation
				JOINT Spine2
				{
					OFFSET -0.000000 11.503036 -0.491240
					CHANNELS 3 Zrotation Yrotation Xrotation
					JOINT Neck_virtual
					{
						OFFSET 0.000000 0.000000 0.000000
						CHANNELS 3 Zrotation Yrotation Xrotation
						JOINT Neck
						{
							OFFSET 0.000000 18.430687 -3.123054
							CHANNELS 3 Zrotation Yrotation Xrotation
							JOINT Head
							{
								OFFSET -0.000000 9.051071 1.034021
								CHANNELS 3 Zrotation Yrotation Xrotation
								End Site
								{
									OFFSET 0.000000 0.000000 0.000000
								}
							}
						}
					}
					JOINT LeftShoulder_virtual
					{
						OFFSET 0.000000 0.000000 0.000000
						CHANNELS 3 Zrotation Yrotation Xrotation
						JOINT LeftShoulder
						{
							OFFSET 6.197824 13.665230 -4.064723
							CHANNELS 3 Zrotation Yrotation Xrotation
							JOINT LeftArm
							{
								OFFSET 7.778132 -0.187073 -1.709282
								CHANNELS 3 Zrotation Yrotation Xrotation
								JOINT LeftForeArm
								{
									OFFSET 21.954697 0.000000 -2.041093
									CHANNELS 3 Zrotation Yrotation Xrotation
									JOINT LeftHand
									{
										OFFSET 22.992908 0.000000 -0.870901
										CHANNELS 3 Zrotation Yrotation Xrotation
										End Site
										{
											OFFSET 0.000000 0.000000 0.000000
										}
									}
								}
							}
						}
					}
					JOINT RightShoulder_virtual
					{
						OFFSET 0.000000 0.000000 0.000000
						CHANNELS 3 Zrotation Yrotation Xrotation
						JOINT RightShoulder
						{
							OFFSET -6.197824 13.665230 -4.064723
							CHANNELS 3 Zrotation Yrotation Xrotation
							JOINT RightArm
							{
								OFFSET -7.778132 -0.187073 -1.709282
								CHANNELS 3 Zrotation Yrotation Xrotation
								JOINT RightForeArm
								{
									OFFSET -21.954697 0.000000 -2.041093
									CHANNELS 3 Zrotation Yrotation Xrotation
									JOINT RightHand
									{
										OFFSET -22.992908 0.000000 -0.870901
										CHANNELS 3 Zrotation Yrotation Xrotation
										End Site
										{
											OFFSET 0.000000 0.000000 0.000000
										}
									}
								}
							}
						}
					}
				}
			}
		}
	}
}
MOTION
Frames: 5
Frame Time: 0.033333
-21.740290 58.090363 3.078032 -179.697018 6.347143 -179.871502 2.651317 2.200597 3.715637 6.162094 4.610426 -71.918299 8.179117 2.043328 92.000401 -3.326179 -7.065996 -23.863590 0.000000 0.000000 0.000000 3.150671 3.588211 6.693208 2.217515 -5.096776 -77.831105 2.959829 3.707352 92.014901 0.276085 1.161271 -19.215895 0.000000 0.000000 0.000000 5.982559 5.913766 4.964046 0.798571 -4.487623 7.367755 0.607515 -2.406403 6.855670 -0.059568 0.133247 0.046722 0.426446 -1.855464 8.917016 -0.505213 -4.440945 -7.249489 0.000000 0.000000 0.000000 2.346619 -0.978243 5.015692 -4.108336 -13.653070 1.153798 -43.365537 -50.629208 10.166822 -0.238932 -49.399203 0.055127 0.000000 0.000000 0.000000 -2.178533 0.469569 4.587834 21.654244 14.090150 1.459118 11.485324 42.903526 -33.311119 -14.438897 75.078696 -13.739547 0.000000 0.000000 0.000000 
-21.878010 58.050106 3.048485 -179.690597 5.258123 -179.842965 2.678548 1.320329 3.760882 5.922489 4.733189 -72.165484 8.348807 2.125822 92.244567 -3.611756 -7.132267 -23.740928 0.000000 0.000000 0.000000 3.086428 2.602371 6.715020 2.244572 -5.381025 -78.007550 2.994296 3.712418 92.131541 0.423481 1.271594 -19.079326 0.000000 0.000000 0.000000 5.940617 5.362106 4.666973 0.578842 -3.960196 7.192412 0.531628 -2.251110 7.138148 -0.049369 0.035073 0.003535 0.284522 -1.623859 9.226331 -0.385436 -4.784935 -7.572631 0.000000 0.000000 0.000000 2.235382 -0.760901 5.334512 -4.750268 -12.837533 1.384832 -47.729280 -46.583270 13.708684 0.971707 -52.372805 0.292440 0.000000 0.000000 0.000000 -2.287017 0.730244 4.834112 20.975335 13.223243 1.190536 11.155438 42.241571 -34.335993 -14.198018 75.721041 -13.375988 0.000000 0.000000 0.000000 
-22.071943 58.002010 3.042487 -179.689477 4.295784 -179.848361 2.625114 0.494522 3.742641 5.731233 4.852312 -72.496646 8.558379 2.190009 92.529536 -3.856873 -7.180531 -23.616113 0.000000 0.000000 0.000000 2.930392 1.707316 6.684664 2.294208 -5.645663 -78.218240 3.026648 3.705004 92.193661 0.566998 1.424958 -18.992296 0.000000 0.000000 0.000000 5.838650 4.666788 4.417177 0.301977 -3.566913 7.071952 0.495019 -1.997081 7.360938 -0.004852 0.048441 -0.021107 0.130012 -1.484058 9.567911 -0.143714 -5.124412 -7.995146 0.000000 0.000000 0.000000 2.069070 -0.541383 5.635671 -5.104004 -11.962907 1.661915 -51.230507 -42.424016 16.367758 2.302864 -55.063336 0.623906 0.000000 0.000000 0.000000 -2.423691 1.069212 5.079008 20.187650 12.416482 0.760004 10.843370 41.547969 -35.363506 -13.159078 76.302864 -12.294012 0.000000 0.000000 0.000000 
-22.297148 57.952820 3.073316 -179.679041 3.427379 -179.853101 2.540433 -0.271836 3.804435 5.587041 4.917065 -72.886048 8.803259 2.267668 92.796514 -4.051543 -7.203506 -23.445633 0.000000 0.000000 0.000000 2.707574 0.926293 6.742948 2.397926 -5.974217 -78.446341 3.048502 3.672668 92.192794 0.681467 1.614666 -18.842830 0.000000 0.000000 0.000000 5.779189 4.074839 4.268479 -0.006236 -3.195742 6.948760 0.397934 -1.751246 7.565254 -0.056642 0.052947 -0.015916 0.097493 -1.156944 9.800153 0.185722 -5.370048 -8.519038 0.000000 0.000000 0.000000 2.081621 -0.370268 5.850035 -5.433536 -11.178898 1.981617 -53.906144 -38.470484 18.197939 3.657344 -58.008134 1.107575 0.000000 0.000000 0.000000 -2.361834 1.212918 5.254645 19.313692 11.663285 0.485833 10.761337 40.946933 -36.069823 -12.898792 76.991607 -12.146073 0.000000 0.000000 0.000000 
-22.495605 57.897686 3.130488 -179.714517 2.732286 -179.858538 2.408955 -0.858758 3.909333 5.523964 4.894886 -73.305019 9.047500 2.273425 93.003141 -4.178581 -7.178391 -23.274899 0.000000 0.000000 0.000000 2.419369 0.313132 6.864203 2.530384 -6.337367 -78.725594 3.049700 3.581280 92.164653 0.763834 1.842356 -18.646109 0.000000 0.000000 0.000000 5.638512 3.563882 4.275998 -0.350750 -2.874845 6.822534 0.384881 -1.521407 7.703648 -0.015938 0.082631 -0.013552 0.061394 -1.015725 9.974122 0.700397 -5.602424 -9.184485 0.000000 0.000000 0.000000 2.006108 -0.207183 6.027529 -5.474272 -10.463178 2.283013 -55.807881 -34.800767 19.412571 5.374976 -61.607671 1.432523 0.000000 0.000000 0.000000 -2.398863 1.353567 5.376017 18.439889 10.851790 0.141722 11.142815 40.423887 -36.341302 -12.606439 78.242351 -12.131351 0.000000 0.000000 0.000000 
